<mxfile host="app.diagrams.net" agent="Mozilla/5.0 (Windows NT 10.0; Win64; x64) AppleWebKit/537.36 (KHTML, like Gecko) Chrome/128.0.0.0 Safari/537.36 OPR/114.0.0.0" version="25.0.3">
  <diagram name="Page-1" id="w2s6EJMtueL3KT_GQZpF">
    <mxGraphModel dx="1380" dy="739" grid="1" gridSize="10" guides="1" tooltips="1" connect="1" arrows="1" fold="1" page="1" pageScale="1" pageWidth="3937" pageHeight="7874" math="0" shadow="0">
      <root>
        <mxCell id="0" />
        <mxCell id="1" parent="0" />
        <mxCell id="GVcUrMLa3Asdd-cFUx20-1" value="&lt;font style=&quot;font-size: 34px;&quot;&gt;start&lt;/font&gt;" style="ellipse;whiteSpace=wrap;html=1;" vertex="1" parent="1">
          <mxGeometry x="610" y="120" width="240" height="120" as="geometry" />
        </mxCell>
        <mxCell id="GVcUrMLa3Asdd-cFUx20-2" value="&lt;font style=&quot;font-size: 26px;&quot;&gt;Initialize memory block list&lt;/font&gt;" style="rounded=0;whiteSpace=wrap;html=1;" vertex="1" parent="1">
          <mxGeometry x="600" y="370" width="260" height="130" as="geometry" />
        </mxCell>
        <mxCell id="GVcUrMLa3Asdd-cFUx20-3" value="&lt;font style=&quot;font-size: 26px;&quot;&gt;Initialize remaining&lt;/font&gt;&lt;div&gt;&lt;font style=&quot;font-size: 26px;&quot;&gt;free memory&lt;/font&gt;&lt;/div&gt;" style="rounded=0;whiteSpace=wrap;html=1;" vertex="1" parent="1">
          <mxGeometry x="600" y="580" width="260" height="130" as="geometry" />
        </mxCell>
        <mxCell id="GVcUrMLa3Asdd-cFUx20-4" value="&lt;span style=&quot;font-size: 26px;&quot;&gt;Get job from&lt;/span&gt;&lt;div&gt;&lt;span style=&quot;font-size: 26px;&quot;&gt;queue&lt;/span&gt;&lt;/div&gt;" style="rounded=0;whiteSpace=wrap;html=1;" vertex="1" parent="1">
          <mxGeometry x="600" y="800" width="260" height="130" as="geometry" />
        </mxCell>
        <mxCell id="GVcUrMLa3Asdd-cFUx20-5" value="&lt;div&gt;&lt;font style=&quot;font-size: 26px;&quot;&gt;Search for the smallest suitable block.&lt;/font&gt;&lt;br&gt;&lt;/div&gt;" style="rounded=0;whiteSpace=wrap;html=1;" vertex="1" parent="1">
          <mxGeometry x="600" y="1030" width="260" height="130" as="geometry" />
        </mxCell>
      </root>
    </mxGraphModel>
  </diagram>
</mxfile>
